<svg xmlns="http://www.w3.org/2000/svg" viewBox="0 0 2769.98 514.58"  fill="#fff" xmlns:v="https://vecta.io/nano"><path d="M450.39 202.91l47.5 74.2-70.37 13.23c-12.09 2.42-12 2.79-16.65-8.76l-14.47-36.64a34.47 34.47 0 0 0-7.71-11.46q-1.1 18.29-2.15 36.6c-.5 9.36-.64 18.71-1.5 28.07-.19 1.92-2.51 4.74-4.39 5.2-36.14 9-72.56 16.52-110.12 16-6.07-.09-12.14-1.19-18.25-1.46-4.84-.18-6-2.92-6.25-7l-1.69-24.14c-4.84.32-9.36.73-13.92.82-9.17.23-18.35.5-27.52.32-4.11-.09-6.62 1.32-7.85 5.11l-9 27.75-72.74 4.43c6.8-13.38 12.55-26.11 19.57-38.07 13.29-22.54 26.66-45 41.17-66.81 16.84-25.28 30.76-51.7 36.55-81.78 1.1-5.66 4.93-6.25 9-7.16q28.07-6.16 56.18-12.28c2.37-.5 4.65-1.32 8.35-2.37 8.26 59.1 27.24 116.14 29.66 176.25l1.51-.14 7.48-56.09 9.13-72 6.66-60c.55-6.12 4.38-7.49 8.54-8.63 10.9-3 22.13-5.11 33-8.3 15.19-4.42 29.89-10.71 45.27-14.12a73.66 73.66 0 0 1 30.62-.23c16.48 3.51 27.47 21.68 28.52 41.26 1.65 31-10.36 57-28.38 81l-5.75 7.2zm-57.87-27.16c7.58-3.79 14-6.3 19.67-9.95 8.08-5.25 11.82-13.09 11-23-.41-5.43-2.92-10.13-8-11-5.25-.91-11 .5-16.43 1.14-.5.05-1.1 1.6-1.23 2.56l-5.01 40.25zM243.2 191.36c-.37-.09-.78-.14-1.14-.23l-21.54 47 22.68-3.2zm790.51-93.28c-10.68-10.5-20.81-19-34.64-20.77a41.65 41.65 0 0 0-13.87.46c-15.84 3.47-33.27 22.82-34.91 38.11-1.87 17.38 9.17 37.37 26.51 43.94 7.35 2.79 16.3 1.83 24.51 1.51 5.57-.23 11.23-1.82 16.61-3.6 5.11-1.69 9.9-4.39 15.56-6.94v7l-.13 64.16c0 2.19-1.24 5.57-2.88 6.3-30.16 14.06-61.74 21-93.69 8.53-37.7-14.69-62.2-43.35-68.87-83-9-53.22 7.12-99.17 50.62-133 24.18-18.85 52.61-23.55 82.51-19.44 10.54 1.46 20.94 4.42 31.3 7 1.6.41 3.93 2.74 3.88 4.11l-2.51 85.63zM523.86 502.92l-51.52 2.37c-2.47 0-6.16-2.51-7.39-4.84-7.67-14.51-15.2-29.16-22.09-44-6-13-11.14-26.43-17.25-39.71-5.8 29.48-6.12 59.47-8.9 90.36l-57 4.11c0-7.9-.5-14.56.09-21.18 1.73-19.62 1.32-39.93 6.39-58.68 9.49-35.05 11.18-70.92 15.56-106.52.23-1.73 1.73-4.29 3.15-4.7l57.59-15.29c.6-.14 1.19-.27 2.1-.45q15.48 46.6 31 93.28c9.9-34 26.42-66.45 18.3-103.42h57.23c-.87 12.19-.69 24.24-2.74 35.92-4.11 23.27-10.13 46.23-14.15 69.55-3.28 19.17-5.06 38.65-7 58.05-1.5 14.8-2.23 29.82-3.37 45.15zm12.64-1.37c0-12.55-.59-24.37.32-36.05 1.51-18.8 3.33-37.65 6.39-56.23 2.42-14.65 7.67-28.84 10.32-43.49 3.46-19.12 5.61-38.47 8.3-57.73l1.87-14.65 56.45-4.33c1.19 21.13-3.42 41.48-4.88 62.38 2.06-3.42 4.29-6.75 6.16-10.27l27.11-50.56c1.78-3.38 3.61-5.39 7.58-5.71l58.87-4.7c-4.2 8.54-7.12 16.11-11.41 22.78q-25.47 39.42-51.85 78.26c-3.19 4.7-4.06 8-1.55 13.47l41.85 94.42c.78 1.78 1.46 3.6 2.51 6.07-2.42.32-4.15.64-5.89.73l-52.48 2.28c-5.84.32-9.35-.73-11.73-7.17-6.61-18.11-14.23-35.87-21.44-53.76a9 9 0 0 0-2.88-4.19l-2.33 33-1.73 27.42c-.14 1.51-1.87 4-3 4.11-18.82 1.59-37.71 2.73-56.56 3.92zM641.33 35.28l-7.71 80.69c-5.75-3.38-10.86-6.94-16.43-9.59-19.9-9.49-35.1-4.42-45.23 15.06a104.7 104.7 0 0 0-7.35 18c-4.33 14.74-6.57 29.75-2 44.95 4.38 14.56 14.37 19.62 28.66 14.87 15-5 29.3-11.18 41.62-22.63a33.9 33.9 0 0 1 .64 4.33l-.1 81.92c0 2.15-1.41 5.43-3 6.16-37.38 16.48-83.43 16.07-117.24-15.7-14.1-13.23-20.81-31-24.92-49.47-16-72.33 30.44-147.63 102-166 16.56-4.28 33.31-4.96 51.06-2.59zm343.37 372.4c9.67 13.6 21.36 22 37.19 23.64a5.21 5.21 0 0 0 1.19.18c5-.36 10.59.19 13-5.66 1.92-4.56-.68-10.08-6.66-13.59-8.72-5.12-18.39-8.9-26.43-14.93-24.27-18.12-33.49-42.85-29.66-72.74 2.83-22.23 13.51-39.84 31.26-53 23.5-17.43 58.19-16.25 81.6 2.28 14.65 11.59 14.6 11.59 8.3 28.8-2.14 5.88-4.06 11.91-6.11 17.89l-6.21 18.25c-4.56-4.33-8.53-8.94-13.37-12.37a82.49 82.49 0 0 0-17.43-9.67c-6.12-2.42-11.5.64-14.47 6.71-2.83 5.75-1.87 10 4.11 14.1a56.77 56.77 0 0 0 11.36 5.79c26.7 10.36 40.53 31 45.73 58 10.27 53.35-35 101.81-88.26 95.65-17.94-2.05-32.45-11-44.72-23.91a5.79 5.79 0 0 1-1.19-4.84l20.77-60.58zm-797.95 105.6l-52.49-3.06 6.58-62.06-1.28-.73-48.51 60.87-18.49-62-10.13 38.2c-2.1 8-4 16.16-6.34 24.1-.5 1.73-2.42 4.38-3.74 4.38-17.3.36-34.6.27-52.35.27q28.64-85.1 56.64-168.42h41.21l15.11 58.24 5.2-9.95 30.16-52.16c1.69-3 3.75-4.16 7.26-4.07 10.31.28 20.67.1 31.17.1v176.29zm518.74-18.76c-.36-3.38-1-6.2-.91-9 .73-24 .87-48.05 2.65-72 1.28-16.93 5.16-33.63 7.39-50.52l7-58.05c1-8.26 2.1-16.52 3.61-24.69a6.75 6.75 0 0 1 4.43-4.38l68.5-10.13c7.16-1.05 14.28-2.46 22.08-3.79l3.47 63.12-50.65 5.2v18.44h34.68v57.36l-39.25 2.1-2.87 18.76h61.42l-3 22.73-6 40.29c-.27 1.69-2.64 4.29-4.06 4.29l-108.49.27zm-347.06-89.45c.41 33.05-10 61.89-35.78 83.29-10.31 8.58-22.45 15.56-34.73 21-18.75 8.35-37.74 6.34-55.45-4.2-24.69-14.69-36.73-36.65-38.29-65.3-2.28-42.49 26.25-100.91 92.14-113.59 13.88-2.7 27.16 2.1 38.75 9.94 21.17 14.38 33.31 34.1 33.31 60.29l.05 8.57zm-52.62 6.9c-.09-9.18-3.65-16.89-10-23.42-5.43-5.61-11.78-6.7-18.94-3.78-15.79 6.48-29.21 29-27.34 46 1.69 15.33 15.65 24.69 29.35 19.67 13.88-5.11 26.89-23.69 26.93-38.47zm427.16-152.7l-68.37 8.3 17.07-164.38h-34.13l6.89-68.55 126.78-18.11v77.4H753c-4.79-.09-6.71 1.78-7.12 6.71l-7.39 85.11-4.88 69.37a31.84 31.84 0 0 1-.64 4.15zm131.25 234.89l3.6-56 2.88-43.27a12 12 0 0 0-.46-4.2l-33-104.14c-2.47-7.85-4.48-15.88-6.76-24.14h61.34q6.43 25.74 12.82 51.57a10.12 10.12 0 0 1 1.23 0q8.22-21.16 16.39-42.35c3.65-9.5 3.65-9.5 14-9.5h53.08c-1.92 5.43-3.38 10.41-5.43 15.06l-47.83 106.75c-6 12.64-5.38 25.64-6.43 38.65l-5.12 71.51-60.31.06zm-87.26-238.09c0-10.27-.55-19.67.09-28.93l5.8-65.67 9.26-76.81c2-18.8 2.83-37.74 4.16-56.63l.91-11.46 65.81-6.34-6 51.61q-4.11 35.75-8.17 71.42-4.86 43-9.54 85.94c-.68 6.07-1.27 12.14-1.59 18.21-.28 4.7-1.46 7.39-7 8.3-17.54 2.97-34.97 6.67-53.73 10.36zm893.41-69.96l3.2.21 48.06.05c11 .12 21.74 1.54 32 5.62q24.54 9.69 29.92 35.46c2.94 14 1 27.46-6.09 39.92-6.71 11.71-17.44 18.13-30.07 21.77a101.41 101.41 0 0 1-27.56 3.66h-16.06v35.12h-33.45zm33.94 29.51c-.33.45-.42.52-.42.59v45.36c0 .58 1.28 1.67 1.94 1.66 8.31-.18 16.64-.2 24.91-.93 5.88-.51 11.68-2.17 16.13-6.5 12.15-11.79 6.88-33.15-9.3-37.94-10.99-3.24-22.22-1.97-33.26-2.24zm278.74 115l-10-1.88c-14.38-2.55-24.27-11.11-31.33-23.43-1.91-3.32-3.66-6.74-5.61-10.36l26.09-14.1c6.44 17.88 22.43 21.84 34.94 19.65a19 19 0 0 0 7.51-3.26c6.13-4.39 6.16-12.65.35-17.43-5.08-4.19-11.26-6.11-17.26-8.42-10-3.86-20-7.73-29-13.87-12-8.21-18.51-19.25-17.28-34.07 1.36-16.46 10.58-27.43 25.25-33.82 5.65-2.47 12-3.39 18-5l2.56-.66h13.43l7 1.71c14.22 3.66 24 12.5 30.24 26l-23.3 16c-3.74-7.8-9.56-12.45-17.68-13.92a18.49 18.49 0 0 0-14.14 2.61c-5.69 3.85-6.53 10.43-1.08 14.6 4.25 3.25 9.33 5.54 14.27 7.76 8.87 4 18.06 7.31 26.84 11.49a40.28 40.28 0 0 1 16.61 14c11.41 17.22 6.76 42.64-10 54.78-9 6.51-19.18 9.35-29.9 10.94-1 .15-2.09.44-3.13.67zm328.59-2.88V186.52l2.38-.18h49.41c11.33.15 22.46 1.74 33 6.28 14.95 6.44 24.31 17.57 27.92 33.42 3.85 16.88 1.28 32.66-9.49 46.44-3.22 4.12-8 7.06-12 10.5a24.41 24.41 0 0 1-2.95 1.82l24.07 42.95c-.94.11-1.59.25-2.25.26-10.56 0-21.12-.05-31.68.05a3.41 3.41 0 0 1-3.5-2.16q-8.22-15.69-16.61-31.28c-.49-.91-1.7-2-2.58-2-7.07-.07-14.14.1-21.2.21a5.88 5.88 0 0 0-1 .22v34.68zm33.45-64.42c5.24 0 10.24.24 15.21-.07a116.37 116.37 0 0 0 16.47-1.93c7.87-1.65 14.21-5.75 16.32-14.07a37 37 0 0 0 .87-10.87c-.42-8.25-4.56-14.35-12.28-17.28a48.44 48.44 0 0 0-13.78-3.06c-7.54-.5-15.13-.13-22.81-.13zm291.22 64.54V186.68h32.81v86.29l.66.31a17 17 0 0 0 1.59-1.71q23.36-33.62 46.69-67.24l11.24-16.05a4 4 0 0 1 2.66-1.71l36.79-.06a7.2 7.2 0 0 1 1.16.26l-6.47 9.26q-21.11 29.61-42.27 59.19c-1 1.39-.74 2.3.13 3.53q23.72 33.54 47.37 67.1l1.32 2-2.63.17h-34.11a3.9 3.9 0 0 1-3.7-2q-13.57-19.65-27.29-39.2l-1.79-2.38-6.61 9.19-22.85 32.16a4.48 4.48 0 0 1-4.16 2.21l-28.2-.13c-.7.09-1.4.03-2.34-.01zM2291.73 186.5v32.06h-67.89v23.3h57.43v30.36h-57.63v17c0 6.63 0 6.63 6.53 6.63h61.58v32h-101.11V186.5zm279.36-.17l-3.79 9.1q-28 65-56 130.08c-.84 2-1.82 2.64-4 2.6-7-.15-14-.14-20.95 0a3.44 3.44 0 0 1-3.77-2.48Q2461 275.35 2439.3 225.1q-7.53-17.49-15.12-35c-.49-1.12-.93-2.26-1.56-3.8h3.25l28.2-.06c2.05 0 2.94.66 3.71 2.5q18.78 44.34 37.7 88.61c.34.81.73 1.6 1.36 3 .64-1.33 1.12-2.21 1.51-3.12q18.8-44.19 37.54-88.39c.84-2 1.89-2.58 4-2.55l27.93.05zm-442.87 32.2v109.29h-33V218.76h-46.48v-31.93h125.9v31.7zm487.28 109.38h-32.64v-141.4h32.64zm-723.21-141.44h33.68l.2 2.16-.16 83.53c-.12 11.89-3 23.29-9.93 33.2-7.61 10.86-18.29 17.56-31 20.85a92.55 92.55 0 0 1-45.7.22c-23.21-5.64-38.11-22.83-40.61-46.7a135.4 135.4 0 0 1-.72-13.66v-79.58h33.8v3.33l.06 76.28a58.69 58.69 0 0 0 1.51 13.29c2.81 11.6 12.49 18.79 25.89 19.42a60.54 60.54 0 0 0 12-.7c10.86-1.71 17.62-8.61 19.75-20.11a66.19 66.19 0 0 0 1.15-12l.05-76.28zm-533.959 71.65l25.824-25.824 25.824 25.824-25.824 25.824z"/><path d="M1468.9 199.2l-25.83-25.82-58.92 58.91-55.56-55.56-25.82 25.83 55.56 55.56-57.24 57.24 25.82 25.83 57.24-57.25 57.26 57.26 25.82-25.83-57.25-57.25 58.92-58.92z"/></svg>