<svg xmlns="http://www.w3.org/2000/svg" width="604" height="287" fill="#ffb800"  xmlns:v="https://vecta.io/nano"><path d="M247.39 113.492l26.095 41.243-38.654 7.355c-6.643 1.345-6.618 1.548-9.15-4.87l-7.946-20.367c-.902-2.258-2.256-4.338-4.236-6.367l-1.178 20.343c-.276 5.199-.351 10.399-.828 15.599-.1 1.065-1.378 2.638-2.406 2.891-19.853 5.023-39.857 9.182-60.488 8.903-3.334-.05-6.668-.659-10.027-.811-2.657-.102-3.309-1.624-3.434-3.906l-.927-13.418c-2.657.177-5.139.405-7.646.456-5.038.127-10.077.279-15.115.178-2.257-.051-3.635.735-4.312 2.841l-4.938 15.421-39.958 2.461c3.735-7.432 6.894-14.509 10.754-21.154 7.295-12.531 14.639-25.035 22.611-37.134 9.25-14.052 16.895-28.738 20.079-45.454.602-3.145 2.707-3.475 4.963-3.982l30.858-6.823c1.304-.279 2.557-.736 4.587-1.319 4.538 32.847 14.966 64.553 16.294 97.958l.827-.076 4.112-31.173 5.013-40L186 58.958c.301-3.399 2.406-4.16 4.687-4.794 5.992-1.674 12.158-2.841 18.124-4.616 8.323-2.486 16.394-5.986 24.842-7.863 5.389-1.218 11.431-1.294 16.82-.127 9.049 1.953 15.091 12.048 15.667 22.93.903 17.223-5.69 31.68-15.592 45.023l-3.158 3.982zM215.604 98.4c4.162-2.105 7.696-3.5 10.804-5.529 4.437-2.917 6.493-7.28 6.067-12.758-.226-3.018-1.605-5.631-4.387-6.113-2.883-.507-6.016.279-9.024.634-.276.025-.602.888-.677 1.42L215.604 98.4zm-82.02 8.675c-.201-.051-.426-.077-.627-.127l-11.831 26.125 12.458-1.775v-24.223zm434.217-51.846c-5.866-5.834-11.431-10.552-19.026-11.541-2.507-.33-5.164-.279-7.621.254-8.698 1.928-18.274 12.682-19.176 21.179-1.028 9.664 5.038 20.774 14.564 24.426 4.036 1.547 8.949 1.015 13.461.837 3.058-.127 6.166-1.015 9.124-2.004 2.808-.938 5.44-2.435 8.548-3.855v3.906l-.075 35.662c0 1.218-.677 3.095-1.579 3.501-16.57 7.812-33.916 11.667-51.463 4.743-20.706-8.168-34.167-24.097-37.827-46.113-4.938-29.575 3.911-55.117 27.8-73.938C517.816 1.811 533.433-.801 549.853 1.482c5.79.812 11.505 2.46 17.196 3.906.877.228 2.155 1.522 2.13 2.283l-1.378 47.559zm-280.053 225.01l-28.301 1.319c-1.353.025-3.384-1.395-4.061-2.689-4.211-8.066-8.347-16.208-12.132-24.477-3.309-7.229-6.117-14.686-9.476-22.067-3.183 16.386-3.359 33.05-4.888 50.222l-31.309 2.283c0-4.388-.276-8.091.05-11.769.953-10.907.727-22.194 3.51-32.619 5.214-19.48 6.141-39.417 8.548-59.201.125-.964.952-2.384 1.729-2.613l31.635-8.497 1.153-.254 17.021 51.846c5.44-18.897 14.514-36.931 10.052-57.477h31.434c-.476 6.773-.376 13.469-1.504 19.962-2.256 12.936-5.565 25.695-7.77 38.656-1.805 10.653-2.783 21.484-3.861 32.264-.802 8.244-1.203 16.588-1.83 25.111zm6.944-.761c.025-6.975-.326-13.545.175-20.038.828-10.45 1.83-20.926 3.51-31.249 1.328-8.142 4.211-16.031 5.665-24.173 1.905-10.628 3.083-21.382 4.562-32.086l1.028-8.142 31.008-2.41c.652 11.744-1.88 23.057-2.682 34.674 1.128-1.903 2.357-3.754 3.384-5.707l14.89-28.104c.978-1.877 1.981-2.993 4.161-3.171l32.337-2.612c-2.306 4.743-3.91 8.953-6.266 12.656l-28.477 43.501c-1.755 2.612-2.231 4.439-.852 7.482l22.986 52.48c.427.989.803 2.004 1.379 3.373-1.328.178-2.281.355-3.233.406l-28.828 1.268c-3.209.178-5.139-.406-6.442-3.982-3.635-10.07-7.821-19.936-11.782-29.879-.326-.812-.652-1.598-1.579-2.334l-1.279 18.364-.952 15.244c-.075.837-1.028 2.232-1.655 2.283l-31.058 2.156zm57.58-259.15l-4.237 44.845c-3.158-1.877-5.966-3.855-9.024-5.327-10.929-5.276-19.277-2.46-24.842 8.37-1.629 3.196-3.033 6.569-4.036 9.994-2.381 8.193-3.609 16.538-1.103 24.984 2.407 8.091 7.897 10.907 15.743 8.269 8.222-2.765 16.093-6.215 22.861-12.581.151 1.015.351 1.699.351 2.409l-.05 45.53c0 1.192-.777 3.018-1.68 3.424-20.53 9.157-45.823 8.929-64.398-8.725-7.745-7.356-11.43-17.248-13.686-27.496-8.799-40.202 16.72-82.054 56.05-92.276 9.1-2.359 18.299-2.739 28.051-1.42zm188.607 207c5.314 7.559 11.731 12.226 20.429 13.139.226.026.452.127.652.102 2.758-.203 5.816.101 7.169-3.146 1.053-2.536-.376-5.605-3.659-7.558-4.788-2.841-10.103-4.946-14.514-8.294-13.336-10.07-18.4-23.818-16.294-40.432 1.554-12.352 7.42-22.143 17.171-29.473 12.91-9.69 31.961-9.03 44.82 1.268 8.047 6.442 8.022 6.442 4.563 16.005-1.179 3.272-2.231 6.62-3.359 9.943l-3.41 10.146c-2.506-2.41-4.687-4.972-7.344-6.874-2.958-2.131-6.192-4.033-9.576-5.377-3.359-1.345-6.317.355-7.946 3.728-1.555 3.196-1.028 5.555 2.256 7.838 1.905 1.319 4.061 2.359 6.241 3.221 14.665 5.758 22.26 17.223 25.118 32.239 5.64 29.651-19.227 56.588-48.48 53.164-9.852-1.142-17.823-6.138-24.566-13.291-.552-.584-.903-1.928-.652-2.689l11.381-33.659zm-438.303 58.669l-28.828-1.7 3.61-34.496-.702-.406-26.647 33.837-10.152-34.471-5.565 21.231-3.484 13.392c-.276.964-1.329 2.435-2.055 2.435L0 285.921l31.084-93.596H53.72l8.297 32.365 2.858-5.529 16.57-28.992c.927-1.649 2.055-2.308 3.986-2.257 5.665.152 11.356.05 17.121.05l.025 98.035zm284.94-10.425c-.2-1.877-.551-3.45-.501-4.997.401-13.342.476-26.709 1.454-40 .702-9.41 2.832-18.694 4.061-28.079l3.835-32.263c.552-4.591 1.153-9.182 1.98-13.723.176-.964 1.479-2.283 2.432-2.435l37.626-5.631c3.936-.583 7.846-1.369 12.133-2.105l1.905 35.079-27.825 2.892v10.247h19.051v31.884l-21.558 1.166-1.579 10.425h33.741l-1.63 12.632-3.308 22.397c-.151.938-1.454 2.384-2.231 2.384l-59.586.127zm-190.637-49.715c.226 18.364-5.465 34.395-19.653 46.291-5.665 4.768-12.333 8.649-19.076 11.693-10.303 4.641-20.731 3.525-30.457-2.334-13.561-8.167-20.179-20.368-21.031-36.297-1.254-23.614 14.413-56.081 50.611-63.132 7.62-1.497 14.915 1.167 21.282 5.529 11.631 7.99 18.299 18.948 18.299 33.507l.025 4.743zm-28.903 3.805c-.05-5.098-2.005-9.385-5.489-13.012-2.983-3.12-6.468-3.729-10.403-2.106-8.674 3.602-16.043 16.132-15.016 25.568.928 8.523 8.598 13.722 16.119 10.932 7.62-2.815 14.764-13.139 14.789-21.382zm234.631-84.845l-37.551 4.616 9.375-91.363h-18.75l3.785-38.098 69.637-10.07V52.92c-5.264 0-10.378.076-15.492-.025-2.632-.051-3.684.989-3.91 3.729l-4.061 47.305-2.682 38.555c-.025.735-.201 1.496-.351 2.333zm72.094 130.552l1.98-31.097 1.579-24.046c.05-.761-.025-1.598-.25-2.333l-18.124-57.882c-1.354-4.363-2.457-8.827-3.71-13.418h33.69l7.044 28.662a6.12 6.12 0 0 1 .677.025l8.999-23.538c2.006-5.276 2.006-5.276 7.721-5.276h29.153c-1.052 3.018-1.855 5.783-2.983 8.37l-26.27 59.328c-3.284 7.026-2.958 14.255-3.535 21.484l-2.807 39.746-33.164-.025zm-47.929-132.327c0-5.708-.301-10.933.05-16.082.877-12.175 1.88-24.375 3.183-36.499l5.089-42.689c1.078-10.45 1.554-20.976 2.281-31.477l.502-6.366 36.147-3.526-3.309 28.687-4.487 39.696-5.239 47.762c-.376 3.373-.702 6.747-.878 10.12-.15 2.613-.802 4.109-3.86 4.617-9.601 1.623-19.177 3.703-29.479 5.758z"/></svg>