<svg xmlns="http://www.w3.org/2000/svg" viewBox="0 0 1559.74 45.83"  xmlns:v="https://vecta.io/nano"><path d="M894.58 44.18l-32.82-30.86-32.82 30.86-32.82-30.86-32.82 30.86-32.82-30.86-32.82 30.86-32.82-30.86-32.82 30.86-32.82-30.86-32.82 30.86-32.83-30.86-32.82 30.86-32.82-30.86-32.82 30.86-32.82-30.86-32.82 30.86-32.82-30.86-32.82 30.86-32.82-30.86-32.82 30.86-32.82-30.86-32.83 30.86-32.81-30.86-32.83 30.86-32.82-30.86-29.9 28.12-5.83-6.2L74.06 1.65l32.82 30.86 32.83-30.86 32.81 30.86 32.83-30.86 32.82 30.86 32.82-30.86 32.82 30.86 32.82-30.86 32.82 30.86 32.82-30.86 32.82 30.86 32.82-30.86 32.82 30.86 32.82-30.86 32.83 30.86L599.2 1.65l32.82 30.86 32.82-30.86 32.82 30.86 32.82-30.86 32.82 30.86 32.82-30.86 32.82 30.86 32.82-30.86 32.82 30.86L927.4 1.65l32.82 30.86 32.82-30.86 32.82 30.86 32.83-30.86 32.82 30.86 32.82-30.86 32.82 30.86 32.83-30.86 32.82 30.86 32.83-30.86 32.82 30.86 32.82-30.86 32.82 30.86 32.83-30.86 32.83 30.86 32.82-30.86 32.83 30.86 32.83-30.86 35.75 33.59-5.83 6.2-29.92-28.12-32.83 30.86-32.83-30.86-32.82 30.86-32.83-30.86-32.83 30.86-32.82-30.86-32.82 30.86-32.82-30.86-32.83 30.86-32.82-30.86-32.83 30.86-32.82-30.86-32.82 30.86-32.82-30.86-32.83 30.86-32.82-30.86-32.82 30.86-32.82-30.86z" fill="#fdb714"/></svg>