<?xml version="1.0" encoding="utf-8"?>
<!-- Generator: Adobe Illustrator 25.2.0, SVG Export Plug-In . SVG Version: 6.00 Build 0)  -->
<svg version="1.1" id="Layer_1" xmlns="http://www.w3.org/2000/svg" xmlns:xlink="http://www.w3.org/1999/xlink" x="0px" y="0px"
	 viewBox="0 0 1559.74 45.83" style="enable-background:new 0 0 1559.74 45.83;" xml:space="preserve">
<style type="text/css">
	.st0{fill:#FDB714;}
</style>
<g>
	<polygon class="st0" points="894.58,44.18 861.76,13.32 828.94,44.18 796.12,13.32 763.3,44.18 730.48,13.32 697.66,44.18 
		664.84,13.32 632.02,44.18 599.2,13.32 566.38,44.18 533.55,13.32 500.73,44.18 467.91,13.32 435.09,44.18 402.27,13.32 
		369.45,44.18 336.63,13.32 303.81,44.18 270.99,13.32 238.17,44.18 205.35,13.32 172.52,44.18 139.71,13.32 106.88,44.18 
		74.06,13.32 44.16,41.44 38.33,35.24 74.06,1.65 106.88,32.51 139.71,1.65 172.52,32.51 205.35,1.65 238.17,32.51 270.99,1.65 
		303.81,32.51 336.63,1.65 369.45,32.51 402.27,1.65 435.09,32.51 467.91,1.65 500.73,32.51 533.55,1.65 566.38,32.51 599.2,1.65 
		632.02,32.51 664.84,1.65 697.66,32.51 730.48,1.65 763.3,32.51 796.12,1.65 828.94,32.51 861.76,1.65 894.58,32.51 927.4,1.65 
		960.22,32.51 993.04,1.65 1025.86,32.51 1058.69,1.65 1091.51,32.51 1124.33,1.65 1157.15,32.51 1189.98,1.65 1222.8,32.51 
		1255.63,1.65 1288.45,32.51 1321.27,1.65 1354.09,32.51 1386.92,1.65 1419.75,32.51 1452.57,1.65 1485.4,32.51 1518.23,1.65 
		1553.98,35.24 1548.15,41.44 1518.23,13.32 1485.4,44.18 1452.57,13.32 1419.75,44.18 1386.92,13.32 1354.09,44.18 1321.27,13.32 
		1288.45,44.18 1255.63,13.32 1222.8,44.18 1189.98,13.32 1157.15,44.18 1124.33,13.32 1091.51,44.18 1058.69,13.32 1025.86,44.18 
		993.04,13.32 960.22,44.18 927.4,13.32 	"/>
</g>
</svg>
